# xmcd
#
# Track frame offsets:
# 150
# 24289
# 44140
# 74474
# 99241
# 122146
# 151292
# 177573
# 213201
#
# Disc length: 3247 seconds
#
#
# Revision: 0
# Processed by: cddbd v1.5.2PL0 Copyright (c) Steve Scherf et al.
# Submitted via: Nero 7, 11, 10, 0 
#
DISCID=790cad09
DTITLE=Richard Day-Reynolds - Live At The Deluxe
DYEAR=1999
DGENRE=Blues
TTITLE0=Tumble and Moan
TTITLE1=I Can't Understand
TTITLE2=Old Dog, New Tricks
TTITLE3=Satisfy Suzie
TTITLE4=Cryin' Shame
TTITLE5=Last Word
TTITLE6=Bush Doctor
TTITLE7=She Said
TTITLE8=I Wonder Why
EXTD=
EXTT0=Tumble and Moan
EXTT1=I Can't Understand
EXTT2=Old Dog, New Tricks
EXTT3=Satisfy Suzie
EXTT4=Cryin' Shame
EXTT5=Last Word
EXTT6=Bush Doctor
EXTT7=She Said
EXTT8=I Wonder Why
PLAYORDER=
